<?xml version="1.0" standalone="no"?>
<!DOCTYPE svg PUBLIC "-//W3C//DTD SVG 20010904//EN"
 "http://www.w3.org/TR/2001/REC-SVG-20010904/DTD/svg10.dtd">
<svg version="1.0" xmlns="http://www.w3.org/2000/svg"
 width="50.000000pt" height="50.000000pt" viewBox="0 0 50.000000 50.000000"
 preserveAspectRatio="xMidYMid meet">

<g transform="translate(0.000000,50.000000) scale(0.100000,-0.100000)"
fill="#FFffff" stroke="none">
<path d="M112 434 c-31 -35 -42 -79 -21 -86 5 -2 19 -70 30 -152 11 -82 22
-153 25 -158 7 -11 201 -11 208 0 3 5 14 76 25 158 11 82 25 150 30 152 21 7
10 51 -21 86 l-32 36 -106 0 -106 0 -32 -36z m243 6 c4 -6 -33 -10 -105 -10
-72 0 -109 4 -105 10 3 6 50 10 105 10 55 0 102 -4 105 -10z m43 -52 c3 -17
-9 -18 -147 -18 -119 0 -151 3 -151 13 0 8 3 17 7 21 4 3 70 5 147 4 125 -3
141 -5 144 -20z m-22 -60 c-3 -13 -6 -33 -6 -45 0 -31 -34 -30 -72 2 -16 14
-40 25 -52 25 -12 0 -33 -11 -46 -25 -30 -32 -70 -34 -70 -2 0 12 -3 32 -6 45
l-6 22 132 0 132 0 -6 -22z m-84 -63 c12 -14 32 -25 45 -25 18 0 23 -6 23 -25
0 -19 -5 -25 -23 -25 -13 0 -33 -11 -45 -25 -28 -32 -56 -32 -84 0 -12 14 -32
25 -45 25 -18 0 -23 6 -23 25 0 19 5 25 23 25 13 0 33 11 45 25 12 14 31 25
42 25 11 0 30 -11 42 -25z m-90 -120 c16 -14 38 -25 48 -25 10 0 32 11 48 25
17 14 35 25 41 25 12 0 14 -41 5 -89 l-6 -31 -88 0 -87 0 -7 31 c-9 48 -7 89
5 89 6 0 24 -11 41 -25z"/>
<path d="M218 245 c-17 -38 0 -80 32 -80 18 0 27 8 34 27 13 36 -6 78 -34 78
-12 0 -25 -10 -32 -25z m47 -31 c0 -19 -5 -29 -15 -29 -16 0 -25 28 -16 51 10
25 31 10 31 -22z"/>
</g>
</svg>
